<?xml version="1.0" standalone="no"?>
<!DOCTYPE svg PUBLIC "-//W3C//DTD SVG 20010904//EN"
 "http://www.w3.org/TR/2001/REC-SVG-20010904/DTD/svg10.dtd">
<svg version="1.0" xmlns="http://www.w3.org/2000/svg"
 width="300.000000pt" height="300.000000pt" viewBox="0 0 300.000000 300.000000"
 preserveAspectRatio="xMidYMid meet">

<g transform="translate(0.000000,300.000000) scale(0.100000,-0.100000)"
fill="#000000" stroke="none">
<path d="M160 1500 l0 -1340 1340 0 1340 0 0 1340 0 1340 -1340 0 -1340 0 0
-1340z m751 1106 c31 -7 70 -23 87 -35 46 -32 83 -116 85 -193 l2 -63 -72 -3
-73 -3 0 28 c0 15 -5 44 -10 64 -14 49 -48 62 -146 57 -120 -6 -114 15 -114
-378 0 -399 -8 -375 128 -375 109 0 128 12 138 86 l7 49 75 0 75 0 -7 -62 c-9
-86 -47 -162 -99 -196 -38 -25 -49 -27 -170 -31 -149 -4 -197 9 -246 65 -56
63 -61 102 -61 474 0 275 3 345 15 381 16 46 48 88 90 115 49 32 202 43 296
20z m1129 -428 c5 -403 6 -439 23 -455 26 -26 208 -26 234 0 17 16 18 51 21
458 l3 440 77 -3 77 -3 -4 -440 c-3 -399 -5 -445 -22 -491 -39 -105 -98 -134
-269 -134 -169 0 -218 23 -266 125 l-24 50 0 448 0 448 73 -3 72 -3 5 -437z
m-680 207 l0 -225 130 0 130 0 0 225 0 225 85 0 85 0 0 -530 0 -530 -85 0 -85
0 0 225 0 225 -130 0 -130 0 0 -225 0 -225 -80 0 -80 0 0 530 0 530 80 0 80 0
0 -225z m-383 -962 c76 -41 103 -102 103 -237 0 -114 -13 -161 -56 -204 -19
-19 -33 -35 -32 -36 44 -26 60 -43 79 -83 22 -43 24 -62 24 -178 0 -148 -10
-186 -61 -239 -54 -56 -105 -66 -331 -66 l-193 0 0 536 0 536 213 -4 c196 -3
215 -5 254 -25z m1097 -171 l79 -193 54 128 c29 70 66 157 81 193 l28 65 77 3
c42 2 77 1 77 -1 0 -2 -47 -119 -104 -260 l-103 -257 64 -157 c35 -87 70 -171
77 -188 24 -51 76 -185 76 -195 0 -6 -38 -10 -88 -10 l-88 0 -79 200 c-43 111
-81 203 -85 205 -4 3 -45 -88 -91 -200 l-84 -205 -77 0 c-43 0 -78 1 -78 3 0
1 49 125 109 275 l109 272 -100 248 c-54 136 -102 253 -105 260 -4 10 14 12
83 10 l89 -3 79 -193z m-501 172 c57 -19 141 -92 169 -147 63 -124 88 -298 69
-470 -19 -169 -62 -271 -145 -344 -69 -61 -121 -73 -307 -73 l-159 0 0 525 0
525 163 0 c123 0 175 -4 210 -16z"/>
<path d="M670 1155 l0 -135 104 0 c101 0 105 1 125 26 18 23 21 41 21 115 0
124 -6 129 -145 129 l-105 0 0 -135z"/>
<path d="M670 700 l0 -160 113 0 c152 0 152 0 152 157 0 113 0 115 -28 139
-26 22 -37 24 -133 24 l-104 0 0 -160z"/>
<path d="M1350 916 l0 -386 58 0 c149 0 234 115 249 335 11 181 -37 338 -124
398 -33 24 -55 31 -112 35 l-71 5 0 -387z"/>
<path d="M2995 1500 c0 -740 1 -1042 2 -672 2 369 2 975 0 1345 -1 369 -2 67
-2 -673z"/>
</g>
</svg>
